<?xml version="1.0" encoding="utf-8"?>
<!-- Generator: Adobe Illustrator 16.0.0, SVG Export Plug-In . SVG Version: 6.00 Build 0)  -->
<!DOCTYPE svg PUBLIC "-//W3C//DTD SVG 1.1//EN" "http://www.w3.org/Graphics/SVG/1.1/DTD/svg11.dtd">
<svg version="1.1" id="Layer_1" xmlns="http://www.w3.org/2000/svg" xmlns:xlink="http://www.w3.org/1999/xlink" x="0px" y="0px"
	 width="527px" height="265px" viewBox="0 0 527 265" enable-background="new 0 0 527 265" xml:space="preserve">
<g>
	<path fill-rule="evenodd" clip-rule="evenodd" fill="#277504" d="M278.756,242.93c-43.482-0.477-79.556-10.357-113.825-27.287
		c-25.829-12.76-50.194-27.832-70.809-48.18c-6.296-6.214-11.62-13.533-16.707-20.822c-5.665-8.118-8.698-9.834-18.326-6.978
		c-12.354,3.666-24.112,8.693-34.579,16.421c-1.835,1.355-4.074,4.154-6.151,0.426c-3.729-6.691-4.308-7.463-0.028-9.975
		c12.646-7.42,25.58-14.065,40.5-15.461c3.369-0.315,6.789-0.437,10.164-0.249c4.411,0.246,7.713-1.452,10.613-4.63
		c39.046-42.776,102.725-80.407,158.86-93.943c21.147-5.099,42.596-7.478,64.325-6.372c29.054,1.479,56.58,9.025,82.109,22.937
		c23.619,12.869,46.674,26.771,70.264,39.696c16.744,9.176,33.93,17.556,50.988,26.154c9.029,4.551,9.498,7.188,1.354,13.297
		c-14.281,10.714-28.871,21.018-43.088,31.814c-15.02,11.408-29.211,23.979-44.723,34.65
		c-34.186,23.518-71.676,39.57-112.941,45.805C295.85,241.881,284.77,242.371,278.756,242.93z M243.616,70.918
		c0,0.066,0,0.133,0,0.2c2.638,0,5.276,0.004,7.914-0.001c4.371-0.008,7.898-1.535,9.776-5.725
		c1.953-4.357,1.792-8.573-1.349-12.384c-3.333-4.042-7.599-6.732-12.804-7.268c-18.46-1.898-33.144,5.366-44.545,19.458
		c-8.341,10.309-12.3,22.29-8.141,35.249c3.041,9.475,7.557,18.551,12.149,27.425c3.058,5.911,8.479,10.026,14.69,12.501
		c17.312,6.898,33.999,5.238,49.748-4.635c6.324-3.964,10.555-9.723,11.829-17.221c1.999-11.767-1.097-22.432-7.665-32.163
		c-2.646-3.918-6.543-6.577-11.203-6.983c-12.535-1.094-23.917,2.343-33.596,10.424c-3.771,3.148-4.218,8.587-1.945,12.422
		c2.376,4.013,6.885,5.958,11.719,4.633c4.842-1.327,9.538-3.202,14.393-4.468c1.585-0.414,4.036-0.309,5.124,0.653
		c4.757,4.205,4.217,10.574-1.112,13.994c-9.53,6.116-19.685,6.903-29.745,1.77c-10.392-5.302-15.053-14.615-15.163-25.962
		c-0.126-12.886,7.331-20.744,20.132-21.877C237.063,70.674,240.35,70.918,243.616,70.918z M364.779,89.513
		c-1.318-7.969-1.863-15.296-3.805-22.232c-5.73-20.475-24.242-29.539-42.871-28.79c-20.046,0.806-27.705,9.561-29.889,26.155
		c-1.393,10.586-0.879,21.61,0.254,32.282c0.914,8.615,3.296,17.276,6.371,25.408c3.506,9.269,10.373,15.97,20.25,18.876
		c17.834,5.248,39.107-5.915,44.535-24.181C362.314,107.979,363.178,98.384,364.779,89.513z M403.354,165.408
		c3.088,1.373,5.334,2.457,7.643,3.377c3.721,1.484,7.387,3.246,11.244,4.209c11.221,2.801,19.176-4.295,16.619-15.544
		c-2.994-13.173-6.859-26.178-10.984-39.051c-1.451-4.525-4.25-8.914-7.391-12.535c-5.281-6.087-13.605-3.713-15.514,4.149
		c-0.605,2.5-0.766,5.265-0.416,7.81c0.752,5.463,2,10.858,2.975,16.293c0.25,1.399,0.242,2.844,0.404,4.933
		c-1.936-0.692-3.176-1.176-4.443-1.582c-6.199-1.987-12.35-4.164-18.627-5.862c-5.557-1.503-11.061-1.362-15.314,3.372
		c-4.146,4.615-2.693,9.814-0.609,14.537c4.602,10.438,9.467,20.776,14.68,30.92c1.533,2.984,4.279,5.611,7.033,7.635
		c3.568,2.623,7.77,2.873,11.615,0.162c3.549-2.502,3.963-6.152,3.264-10.109C404.836,174.191,404.182,170.254,403.354,165.408z
		 M275.805,228.094c22.759,0.723,33.844-24.463,29.645-38.52c-2.309-7.725-7.088-13.287-15.285-14.318
		c-8.191-1.029-15.826,1.045-21.301,7.811c-2.799,3.459-3.447,7.551-1.142,11.631c2.106,3.729,6.911,5.908,11.366,5.018
		c2.301-0.459,4.449-1.645,6.717-2.328c1.102-0.332,3.004-0.75,3.344-0.275c0.667,0.938,1.021,2.697,0.583,3.721
		c-2.085,4.855-5.989,7.791-11.158,8.518c-4.869,0.684-9.112-1.111-11.507-5.496c-1.717-3.145-3.076-6.652-3.77-10.16
		c-2.722-13.754,4.818-23.113,18.727-23.92c3.213-0.188,6.598-0.578,9.527-1.787c5.341-2.205,5.6-7.639,0.848-10.818
		c-11.775-7.876-26.491-6.936-36.796,2.812c-13.444,12.719-16.511,28.297-11.08,45.578
		C249.04,219.934,260.67,228.023,275.805,228.094z M310.59,192.199c1.549,6.355,2.555,12.686,4.701,18.604
		c1.694,4.672,5.535,7.787,11.043,7.625c7.387-0.217,11.918-6.82,10.701-15.48c-0.85-6.031-0.264-7.104,5.242-9.58
		c1.145-0.514,2.316-0.973,3.441-1.525c3.246-1.6,5.859-0.625,7.984,2.018c0.938,1.168,1.682,2.494,2.48,3.771
		c5.414,8.652,12.064,10.189,20.703,4.775c3.844-2.41,5.416-5.857,4.373-10.279c-2.312-9.797-7.771-17.898-14.172-25.414
		c-6.398-7.518-13.365-14.371-22.998-17.717c-13.611-4.729-23.373-0.471-27.424,13.208
		C313.803,171.871,312.588,182.025,310.59,192.199z M184.308,195.984c-0.16,10.047,3.815,16.621,11.066,21.021
		c9.873,5.986,20.792,7.125,32.022,5.541c4.039-0.57,6.977-3.596,7.136-6.773c0.2-4.014-2.318-6.48-5.678-7.559
		c-3.893-1.25-8.087-1.525-12.07-2.539c-3.927-1-7.997-1.928-11.549-3.768c-2.817-1.459-3.197-4.76-1.836-7.686
		c1.297-2.787,3.958-2.779,6.543-2.375c1.356,0.213,2.658,0.916,4.007,0.994c3.85,0.221,7.844,0.865,11.519,0.094
		c2.232-0.469,5.179-3.002,5.605-5.064c0.43-2.074-1.368-5.199-3.105-6.963c-1.619-1.643-4.36-2.525-6.753-2.979
		c-3.926-0.744-7.976-0.793-11.958-1.279c-2.826-0.344-4.24-2.104-3.967-4.953c0.302-3.154,2.466-3.998,5.128-3.332
		c3.76,0.941,7.393,2.398,11.157,3.318c4.358,1.066,8.771,2.242,13.214,2.529c4.16,0.27,6.687-2.375,7.605-6.455
		c0.813-3.619-0.339-6.83-4.158-8.297c-8.286-3.183-16.606-6.639-25.233-8.473c-10.855-2.309-16.702,1.639-20.89,11.901
		C187.61,173.926,185.703,185.551,184.308,195.984z M166.975,170.605c-0.389,0-0.779,0-1.168,0
		c-1.739-5.875-3.301-11.811-5.291-17.6c-1.04-3.025-2.454-6.084-4.391-8.593c-2.056-2.661-5.271-3.528-8.491-1.823
		c-2.994,1.584-3.521,4.487-2.968,7.508c1.424,7.77,2.521,15.646,4.648,23.23c2.121,7.562,4.561,15.236,8.272,22.098
		c4.167,7.703,11.979,7.697,17.01,0.465c2.747-3.947,5.101-8.488,6.327-13.107c2.666-10.049,4.66-20.29,6.545-30.522
		c0.445-2.414-0.078-5.359-1.116-7.619c-2.17-4.724-7.545-5.167-10.69-1.03c-1.25,1.644-2.047,3.739-2.648,5.749
		C170.907,156.415,168.974,163.52,166.975,170.605z M189.243,65.268c-3.462-2.445-5.478-0.691-7.459,0.354
		c-28.668,15.104-55.573,32.935-80.906,53.094c-5.138,4.088-9.266,9.444-13.874,14.2c-2.225,2.295-2.714,5.112-0.993,7.575
		c3.567,5.104,6.948,10.59,11.502,14.706c12.103,10.935,23.857,22.368,37.943,30.911c2.242,1.361,4.104,3.336,6.316,4.76
		c1.01,0.648,2.44,0.646,3.681,0.938c-0.347-1.311-0.323-2.938-1.117-3.869c-1.609-1.889-3.547-3.557-5.552-5.041
		c-4.945-3.662-10.221-6.906-14.97-10.799c-7.871-6.453-15.611-13.094-23.051-20.036c-3.817-3.562-7.003-7.839-10.213-11.996
		c-2.095-2.712-1.931-5.532,0.846-7.987c2.633-2.327,4.954-5.045,7.745-7.149c9.033-6.812,18.182-13.471,27.354-20.094
		c18.269-13.192,37.449-24.923,57.297-35.581C185.577,68.295,187.102,66.853,189.243,65.268z M120.161,128.974
		c1.132-0.344,2.936-0.86,4.719-1.439c12.644-4.106,25.283-8.228,37.925-12.34c3.219-1.047,6.548-1.846,9.612-3.232
		c1.212-0.549,2.467-2.357,2.535-3.653c0.054-1.038-1.454-2.639-2.632-3.15c-1.906-0.826-4.113-1.341-6.189-1.329
		c-16.993,0.102-32.2,5.85-46.146,15.194c-1.665,1.116-2.984,3.101-3.858,4.965C114.731,126.967,116.198,128.919,120.161,128.974z
		 M490.596,123.221c-1.27,1.109-1.973,1.788-2.74,2.386c-12.277,9.575-24.604,19.088-36.781,28.789
		c-1.193,0.95-1.482,3.034-2.193,4.592c1.65-0.24,3.705,0.062,4.883-0.814c5.229-3.893,10.211-8.117,15.273-12.232
		c8.283-6.734,16.592-13.44,24.797-20.269c0.926-0.771,1.896-2.384,1.689-3.361c-0.197-0.94-1.822-1.719-2.961-2.281
		c-1.334-0.66-2.9-0.852-4.23-1.518c-11.76-5.896-23.479-11.875-35.236-17.775c-3.602-1.807-7.287-3.443-10.936-5.157
		c-0.295,1.226-0.195,1.791,0.135,2.012C457.326,107.637,472.674,117.104,490.596,123.221z M405.371,91.384c0,0.043,0,0.087,0,0.13
		c5.533,0,11.082,0.232,16.588-0.146c1.584-0.109,4.035-1.787,4.289-3.095s-1.463-3.403-2.836-4.505
		c-1.285-1.03-3.238-1.257-4.922-1.756c-10.166-3.015-20.139-1.637-30.041,1.354c-2.426,0.732-4.816,1.866-4.484,4.734
		c0.348,3.021,3.098,3.253,5.562,3.272C394.809,91.413,400.09,91.384,405.371,91.384z M399.91,69.603
		c0.57-0.788,1.141-1.575,1.711-2.363c-1.26-0.75-2.48-1.578-3.785-2.239c-10.291-5.219-20.58-10.443-30.926-15.55
		c-1.08-0.533-2.529-0.315-3.809-0.447c-0.08,0.409-0.162,0.817-0.242,1.226C375.324,56.46,387.131,63.992,399.91,69.603z
		 M344.715,218.242c3.865,1.996,14.523-0.957,15.604-3.795c0.15-0.393-1.322-2.033-1.803-1.934c-2.555,0.529-5.1,1.262-7.512,2.254
		C348.959,215.607,347.104,216.898,344.715,218.242z M238.548,229.061c4.058,4.469,17.098,5.65,20.426,2.076
		C251.772,230.404,245.16,229.734,238.548,229.061z M302.275,227.695c0.129,0.469,0.258,0.938,0.387,1.406
		c4.503,1.926,11.703-0.328,13.124-5.012C310.928,225.387,306.602,226.541,302.275,227.695z M180.377,211.197
		c-2.146-3.014-5.332-3.795-8.488-4.469c-0.241-0.051-1.45,1.93-1.189,2.498C171.534,211.045,177.826,212.336,180.377,211.197z
		 M282.752,42.016c-0.059-0.488-0.117-0.976-0.176-1.464c-4.385-0.527-8.583-0.092-12.418,2.22c0.062,0.354,0.125,0.708,0.188,1.061
		C274.482,43.228,278.617,42.622,282.752,42.016z M395.254,199.975c-0.297-0.686-0.594-1.371-0.891-2.057
		c-1.961,0.844-3.953,1.627-5.857,2.588c-0.346,0.176-0.627,1.365-0.422,1.572c0.439,0.439,1.381,0.914,1.828,0.717
		C391.752,201.988,393.482,200.938,395.254,199.975z M419.355,182.408c-4.537-1.09-6.668,0.492-6.531,4.574
		C415.271,185.268,417.312,183.838,419.355,182.408z"/>
	<path fill-rule="evenodd" clip-rule="evenodd" fill="#FFFFFF" d="M243.616,70.918c-3.266,0-6.553-0.244-9.793,0.042
		c-12.801,1.133-20.259,8.991-20.132,21.877c0.11,11.348,4.771,20.661,15.163,25.962c10.06,5.133,20.215,4.346,29.745-1.77
		c5.33-3.42,5.869-9.789,1.112-13.994c-1.088-0.962-3.539-1.066-5.124-0.653c-4.855,1.266-9.551,3.141-14.393,4.468
		c-4.834,1.325-9.343-0.621-11.719-4.633c-2.272-3.835-1.825-9.274,1.945-12.422c9.679-8.081,21.061-11.518,33.596-10.424
		c4.66,0.407,8.558,3.065,11.203,6.983c6.568,9.731,9.664,20.396,7.665,32.163c-1.274,7.498-5.505,13.257-11.829,17.221
		c-15.749,9.873-32.436,11.533-49.748,4.635c-6.21-2.476-11.632-6.591-14.69-12.501c-4.592-8.874-9.109-17.951-12.149-27.425
		c-4.159-12.959-0.2-24.939,8.141-35.249c11.401-14.092,26.085-21.357,44.545-19.458c5.205,0.535,9.471,3.226,12.804,7.268
		c3.142,3.811,3.302,8.027,1.349,12.384c-1.878,4.19-5.406,5.717-9.776,5.725c-2.638,0.005-5.276,0.001-7.914,0.001
		C243.616,71.051,243.616,70.984,243.616,70.918z"/>
	<path fill-rule="evenodd" clip-rule="evenodd" fill="#FFFFFF" d="M364.779,89.513c-1.602,8.871-2.465,18.466-5.154,27.519
		c-5.428,18.267-26.701,29.429-44.535,24.181c-9.877-2.906-16.744-9.607-20.25-18.876c-3.075-8.132-5.457-16.793-6.371-25.408
		c-1.133-10.672-1.646-21.696-0.254-32.282c2.184-16.594,9.843-25.349,29.889-26.155c18.629-0.749,37.141,8.315,42.871,28.79
		C362.916,74.217,363.461,81.544,364.779,89.513z M338.879,85.705c-0.98-6.434-1.524-11.817-2.669-17.069
		c-1.456-6.674-5.821-10.429-12.138-11.177c-6.729-0.796-11.07,1.49-14.559,7.667c-6.521,11.544-5.184,28.827,3.033,39.172
		c7.117,8.959,18.016,7.806,22.361-2.797C337.057,96.26,337.739,90.418,338.879,85.705z"/>
	<path fill-rule="evenodd" clip-rule="evenodd" fill="#FFFFFF" d="M403.354,165.408c0.828,4.846,1.482,8.783,2.178,12.713
		c0.699,3.957,0.285,7.607-3.264,10.109c-3.846,2.711-8.047,2.461-11.615-0.162c-2.754-2.023-5.5-4.65-7.033-7.635
		c-5.213-10.145-10.078-20.482-14.68-30.92c-2.084-4.722-3.537-9.922,0.609-14.537c4.254-4.734,9.758-4.875,15.314-3.372
		c6.277,1.698,12.428,3.875,18.627,5.862c1.268,0.406,2.508,0.89,4.443,1.582c-0.162-2.088-0.154-3.533-0.404-4.933
		c-0.975-5.435-2.223-10.83-2.975-16.293c-0.35-2.545-0.189-5.309,0.416-7.81c1.908-7.862,10.232-10.237,15.514-4.149
		c3.141,3.621,5.939,8.01,7.391,12.535c4.125,12.873,7.99,25.878,10.984,39.051c2.557,11.249-5.398,18.345-16.619,15.544
		c-3.857-0.963-7.523-2.725-11.244-4.209C408.688,167.865,406.441,166.781,403.354,165.408z"/>
	<path fill-rule="evenodd" clip-rule="evenodd" fill="#FFFFFF" d="M275.805,228.094c-15.134-0.07-26.765-8.16-31.283-22.535
		c-5.431-17.281-2.364-32.859,11.08-45.578c10.305-9.749,25.021-10.689,36.796-2.812c4.752,3.18,4.493,8.613-0.848,10.818
		c-2.93,1.209-6.314,1.6-9.527,1.787c-13.909,0.807-21.449,10.166-18.727,23.92c0.694,3.508,2.053,7.016,3.77,10.16
		c2.395,4.385,6.638,6.18,11.507,5.496c5.169-0.727,9.073-3.662,11.158-8.518c0.438-1.023,0.084-2.783-0.583-3.721
		c-0.34-0.475-2.242-0.057-3.344,0.275c-2.268,0.684-4.416,1.869-6.717,2.328c-4.455,0.891-9.26-1.289-11.366-5.018
		c-2.306-4.08-1.657-8.172,1.142-11.631c5.475-6.766,13.109-8.84,21.301-7.811c8.197,1.031,12.977,6.594,15.285,14.318
		C309.648,203.631,298.563,228.816,275.805,228.094z"/>
	<path fill-rule="evenodd" clip-rule="evenodd" fill="#FFFFFF" d="M310.59,192.199c1.998-10.174,3.213-20.328,6.076-29.995
		c4.051-13.679,13.812-17.937,27.424-13.208c9.633,3.346,16.6,10.2,22.998,17.717c6.4,7.516,11.859,15.617,14.172,25.414
		c1.043,4.422-0.529,7.869-4.373,10.279c-8.639,5.414-15.289,3.877-20.703-4.775c-0.799-1.277-1.543-2.604-2.48-3.771
		c-2.125-2.643-4.738-3.617-7.984-2.018c-1.125,0.553-2.297,1.012-3.441,1.525c-5.506,2.477-6.092,3.549-5.242,9.58
		c1.217,8.66-3.314,15.264-10.701,15.48c-5.508,0.162-9.349-2.953-11.043-7.625C313.145,204.885,312.139,198.555,310.59,192.199z
		 M331.703,173.543c1.322,2.109,2.254,3.592,3.183,5.074c2.166-1.424,4.331-2.85,6.497-4.275c-2.094-1.619-4.115-3.363-6.387-4.672
		C334.754,169.531,333.043,171.943,331.703,173.543z"/>
	<path fill-rule="evenodd" clip-rule="evenodd" fill="#FFFFFF" d="M184.308,195.984c1.395-10.434,3.302-22.059,7.806-33.096
		c4.188-10.262,10.035-14.21,20.89-11.901c8.627,1.834,16.947,5.291,25.233,8.473c3.819,1.467,4.971,4.678,4.158,8.297
		c-0.918,4.08-3.445,6.725-7.605,6.455c-4.444-0.287-8.856-1.463-13.214-2.529c-3.764-0.92-7.396-2.377-11.157-3.318
		c-2.663-0.666-4.826,0.178-5.128,3.332c-0.273,2.85,1.142,4.609,3.967,4.953c3.981,0.486,8.032,0.535,11.958,1.279
		c2.393,0.453,5.134,1.336,6.753,2.979c1.737,1.764,3.535,4.889,3.105,6.963c-0.427,2.062-3.373,4.596-5.605,5.064
		c-3.674,0.771-7.668,0.127-11.519-0.094c-1.349-0.078-2.651-0.781-4.007-0.994c-2.585-0.404-5.246-0.412-6.543,2.375
		c-1.361,2.926-0.981,6.227,1.836,7.686c3.552,1.84,7.622,2.768,11.549,3.768c3.983,1.014,8.177,1.289,12.07,2.539
		c3.359,1.078,5.877,3.545,5.678,7.559c-0.159,3.178-3.097,6.203-7.136,6.773c-11.23,1.584-22.15,0.445-32.022-5.541
		C188.124,212.605,184.148,206.031,184.308,195.984z"/>
	<path fill-rule="evenodd" clip-rule="evenodd" fill="#FFFFFF" d="M166.975,170.605c1.999-7.086,3.932-14.191,6.039-21.245
		c0.601-2.01,1.398-4.105,2.648-5.749c3.146-4.137,8.52-3.694,10.69,1.03c1.038,2.26,1.561,5.205,1.116,7.619
		c-1.885,10.232-3.879,20.474-6.545,30.522c-1.226,4.619-3.58,9.16-6.327,13.107c-5.031,7.232-12.843,7.238-17.01-0.465
		c-3.712-6.861-6.152-14.535-8.272-22.098c-2.127-7.584-3.224-15.46-4.648-23.23c-0.554-3.021-0.026-5.924,2.968-7.508
		c3.221-1.705,6.435-0.838,8.491,1.823c1.938,2.508,3.352,5.568,4.391,8.593c1.99,5.789,3.552,11.725,5.291,17.6
		C166.196,170.605,166.586,170.605,166.975,170.605z"/>
	<path fill-rule="evenodd" clip-rule="evenodd" fill="#FFFFFF" d="M189.243,65.268c-2.141,1.585-3.667,3.027-5.452,3.986
		c-19.849,10.658-39.028,22.389-57.297,35.581c-9.172,6.623-18.321,13.283-27.354,20.094c-2.791,2.104-5.111,4.822-7.745,7.149
		c-2.777,2.455-2.941,5.275-0.846,7.987c3.21,4.156,6.396,8.434,10.213,11.996c7.44,6.942,15.18,13.583,23.051,20.036
		c4.749,3.893,10.025,7.137,14.97,10.799c2.005,1.484,3.943,3.152,5.552,5.041c0.793,0.932,0.77,2.559,1.117,3.869
		c-1.24-0.291-2.67-0.289-3.681-0.938c-2.211-1.424-4.074-3.398-6.316-4.76c-14.085-8.543-25.84-19.977-37.943-30.911
		c-4.555-4.115-7.935-9.601-11.502-14.706c-1.721-2.463-1.231-5.28,0.993-7.575c4.608-4.756,8.736-10.111,13.874-14.2
		c25.333-20.159,52.238-37.99,80.906-53.094C183.766,64.577,185.781,62.822,189.243,65.268z"/>
	<path fill-rule="evenodd" clip-rule="evenodd" fill="#FFFFFF" d="M120.161,128.974c-3.963-0.055-5.43-2.007-4.035-4.983
		c0.875-1.865,2.193-3.849,3.858-4.965c13.946-9.344,29.152-15.092,46.146-15.194c2.076-0.012,4.283,0.503,6.189,1.329
		c1.179,0.511,2.686,2.112,2.632,3.15c-0.067,1.295-1.323,3.104-2.535,3.653c-3.064,1.386-6.393,2.186-9.612,3.232
		c-12.642,4.112-25.281,8.234-37.925,12.34C123.097,128.114,121.293,128.63,120.161,128.974z"/>
	<path fill-rule="evenodd" clip-rule="evenodd" fill="#FFFFFF" d="M490.596,123.221c-17.922-6.118-33.27-15.584-48.301-25.629
		c-0.33-0.221-0.43-0.786-0.135-2.012c3.648,1.714,7.334,3.35,10.936,5.157c11.758,5.9,23.477,11.88,35.236,17.775
		c1.33,0.667,2.896,0.858,4.23,1.518c1.139,0.562,2.764,1.341,2.961,2.281c0.207,0.977-0.764,2.59-1.689,3.361
		c-8.205,6.828-16.514,13.534-24.797,20.269c-5.062,4.116-10.045,8.34-15.273,12.232c-1.178,0.876-3.232,0.574-4.883,0.814
		c0.711-1.558,1-3.642,2.193-4.592c12.178-9.7,24.504-19.213,36.781-28.789C488.623,125.009,489.326,124.33,490.596,123.221z"/>
	<path fill-rule="evenodd" clip-rule="evenodd" fill="#FFFFFF" d="M405.371,91.384c-5.281,0-10.562,0.029-15.844-0.013
		c-2.465-0.019-5.215-0.251-5.562-3.272c-0.332-2.868,2.059-4.001,4.484-4.734c9.902-2.991,19.875-4.369,30.041-1.354
		c1.684,0.499,3.637,0.726,4.922,1.756c1.373,1.102,3.09,3.197,2.836,4.505s-2.705,2.985-4.289,3.095
		c-5.506,0.378-11.055,0.146-16.588,0.146C405.371,91.471,405.371,91.428,405.371,91.384z"/>
	<path fill-rule="evenodd" clip-rule="evenodd" fill="#FFFFFF" d="M399.91,69.603c-12.779-5.611-24.586-13.143-37.051-19.373
		c0.08-0.409,0.162-0.817,0.242-1.226c1.279,0.131,2.729-0.086,3.809,0.447c10.346,5.107,20.635,10.331,30.926,15.55
		c1.305,0.662,2.525,1.489,3.785,2.239C401.051,68.028,400.48,68.815,399.91,69.603z"/>
	<path fill-rule="evenodd" clip-rule="evenodd" fill="#FFFFFF" d="M344.715,218.242c2.389-1.344,4.244-2.635,6.289-3.475
		c2.412-0.992,4.957-1.725,7.512-2.254c0.48-0.1,1.953,1.541,1.803,1.934C359.238,217.285,348.58,220.238,344.715,218.242z"/>
	<path fill-rule="evenodd" clip-rule="evenodd" fill="#FFFFFF" d="M238.548,229.061c6.612,0.674,13.224,1.344,20.426,2.076
		C255.646,234.711,242.606,233.529,238.548,229.061z"/>
	<path fill-rule="evenodd" clip-rule="evenodd" fill="#FFFFFF" d="M302.275,227.695c4.326-1.154,8.652-2.309,13.511-3.605
		c-1.421,4.684-8.621,6.938-13.124,5.012C302.533,228.633,302.404,228.164,302.275,227.695z"/>
	<path fill-rule="evenodd" clip-rule="evenodd" fill="#FFFFFF" d="M180.377,211.197c-2.551,1.139-8.843-0.152-9.677-1.971
		c-0.261-0.568,0.948-2.549,1.189-2.498C175.045,207.402,178.231,208.184,180.377,211.197z"/>
	<path fill-rule="evenodd" clip-rule="evenodd" fill="#FFFFFF" d="M282.752,42.016c-4.135,0.606-8.27,1.211-12.405,1.816
		c-0.063-0.353-0.126-0.707-0.188-1.061c3.835-2.312,8.033-2.747,12.418-2.22C282.635,41.041,282.693,41.528,282.752,42.016z"/>
	<path fill-rule="evenodd" clip-rule="evenodd" fill="#FFFFFF" d="M395.254,199.975c-1.771,0.963-3.502,2.014-5.342,2.82
		c-0.447,0.197-1.389-0.277-1.828-0.717c-0.205-0.207,0.076-1.396,0.422-1.572c1.904-0.961,3.896-1.744,5.857-2.588
		C394.66,198.604,394.957,199.289,395.254,199.975z"/>
	<path fill-rule="evenodd" clip-rule="evenodd" fill="#FFFFFF" d="M419.355,182.408c-2.043,1.43-4.084,2.859-6.531,4.574
		C412.688,182.9,414.818,181.318,419.355,182.408z"/>
	<path fill-rule="evenodd" clip-rule="evenodd" fill="#277504" d="M338.879,85.705c-1.14,4.714-1.822,10.555-3.971,15.796
		c-4.346,10.603-15.244,11.756-22.361,2.797c-8.217-10.345-9.555-27.628-3.033-39.172c3.488-6.177,7.83-8.463,14.559-7.667
		c6.316,0.748,10.682,4.502,12.138,11.177C337.354,73.888,337.898,79.271,338.879,85.705z"/>
	<path fill-rule="evenodd" clip-rule="evenodd" fill="#277504" d="M331.703,173.543c1.34-1.6,3.051-4.012,3.293-3.873
		c2.271,1.309,4.293,3.053,6.387,4.672c-2.166,1.426-4.331,2.852-6.497,4.275C333.957,177.135,333.025,175.652,331.703,173.543z"/>
</g>
</svg>
